/* XPM */
static char *_634479626297[] = {
/* columns rows colors chars-per-pixel */
"50 50 219 2 ",
"   c #330000",
".  c #3C140C",
"X  c #400000",
"o  c #500400",
"O  c #461D09",
"+  c #561600",
"@  c #5A1A03",
"#  c #601C00",
"$  c #5A2600",
"%  c #5E2804",
"&  c #602400",
"*  c #6C2B00",
"=  c #66200C",
"-  c #6D2500",
";  c #752E00",
":  c #7D2D02",
">  c #6B3801",
",  c #753301",
"<  c #7B3401",
"1  c #753C02",
"2  c #7C3C02",
"3  c #733509",
"4  c #7D390B",
"5  c #6B3010",
"6  c #60391D",
"7  c #623C25",
"8  c #624305",
"9  c #6B4504",
"0  c #634708",
"q  c #6C400F",
"w  c #6E4909",
"e  c #754403",
"r  c #7C4302",
"t  c #704906",
"y  c #7D4B03",
"u  c #72430E",
"i  c #7C430A",
"p  c #7C4A0D",
"a  c #72490A",
"s  c #7B5007",
"d  c #7C510B",
"f  c #72520E",
"g  c #6E4713",
"h  c #6D4B14",
"j  c #674519",
"k  c #6D4A1A",
"l  c #764712",
"z  c #7A4512",
"x  c #744B14",
"c  c #7C4A15",
"v  c #724C1C",
"b  c #78481E",
"n  c #7F5016",
"m  c #775018",
"M  c #7C5119",
"N  c #654125",
"B  c #6A4328",
"V  c #764B24",
"C  c #724F2E",
"Z  c #7B482A",
"A  c #892E00",
"S  c #823502",
"D  c #8B3501",
"F  c #843B02",
"G  c #8C3C02",
"H  c #833D09",
"J  c #8E3D0A",
"K  c #913601",
"L  c #933C02",
"P  c #9B3E04",
"I  c #893B12",
"U  c #A03D03",
"Y  c #844303",
"T  c #8B4502",
"R  c #844A04",
"E  c #8C4A03",
"W  c #83440A",
"Q  c #8C440A",
"!  c #834A09",
"~  c #8B4C0B",
"^  c #944403",
"/  c #9B4503",
"(  c #934B03",
")  c #9C4B03",
"_  c #93430A",
"`  c #984408",
"'  c #944D0B",
"]  c #9B4C0B",
"[  c #825000",
"{  c #8F5207",
"}  c #84520D",
"|  c #8C530D",
" . c #965205",
".. c #9C5204",
"X. c #9C5B06",
"o. c #94510C",
"O. c #9C530C",
"+. c #9C580E",
"@. c #935D0A",
"#. c #8A4613",
"$. c #814A14",
"%. c #8B4B11",
"&. c #8B4D1C",
"*. c #934F14",
"=. c #9B4E13",
"-. c #984D1E",
";. c #825315",
":. c #8C5612",
">. c #845914",
",. c #8C5A15",
"<. c #8A5D19",
"1. c #845319",
"2. c #935413",
"3. c #9C5413",
"4. c #935A14",
"5. c #9C5B15",
"6. c #93541C",
"7. c #9B531D",
"8. c #945E1A",
"9. c #9B5C19",
"0. c #A34503",
"q. c #A34C03",
"w. c #AA4C03",
"e. c #A24B0B",
"r. c #A94A07",
"t. c #B24E03",
"y. c #A55402",
"u. c #AB5502",
"i. c #A45904",
"p. c #AC5A03",
"a. c #A4550B",
"s. c #AA560B",
"d. c #A55A0D",
"f. c #AB5B0B",
"g. c #B35403",
"h. c #BA5404",
"j. c #B25B04",
"k. c #BA5B05",
"l. c #B3560A",
"z. c #B35C0C",
"x. c #BC5B08",
"c. c #A44F11",
"v. c #A35513",
"b. c #AA5612",
"n. c #A45A14",
"m. c #AA5B13",
"M. c #A15718",
"N. c #A35B19",
"B. c #AB5C1B",
"V. c #AD5518",
"C. c #B05E10",
"Z. c #B05A19",
"A. c #B65911",
"S. c #8C611E",
"D. c #9F6014",
"F. c #94621C",
"G. c #9C621B",
"H. c #AE6105",
"J. c #AD620C",
"K. c #B26205",
"L. c #BB6306",
"P. c #B76807",
"I. c #B3630A",
"U. c #BC6408",
"Y. c #B6690D",
"T. c #BA6B0B",
"R. c #BB6907",
"E. c #A26215",
"W. c #AC6314",
"Q. c #A1631A",
"!. c #AB621B",
"~. c #AD6919",
"^. c #B46612",
"/. c #BA6316",
"(. c #B96B12",
"). c #B2641B",
"_. c #B36A1D",
"`. c #BB6A1B",
"'. c #B76B12",
"]. c #844D23",
"[. c #8A4C23",
"{. c #804F2B",
"}. c #8F552B",
"|. c #895723",
" X c #94532B",
".X c #9C5828",
"XX c #975924",
"oX c #904F30",
"OX c #996820",
"+X c #AC6523",
"@X c #A46A20",
"#X c #AB6A26",
"$X c #A36220",
"%X c #BC6620",
"&X c #B36A25",
"*X c #BB6B23",
"=X c #B26C29",
"-X c #B96F29",
";X c #B46721",
":X c #BA7020",
">X c #BA712A",
",X c #B2702A",
"<X c #C05603",
"1X c #C65F04",
"2X c #C55E08",
"3X c #C36204",
"4X c #CA6605",
"5X c #C5660B",
"6X c #CA660B",
"7X c #C66A0C",
"8X c #CC6B0C",
"9X c #D26B05",
"0X c #C86710",
"qX c #C56912",
"wX c #C36B1A",
"eX c #C86818",
"rX c #C66814",
"tX c #C26F23",
"yX c None",
/* pixels */
"T ' v.H.K.p.p.p.p.p.p.p.f.j.p.j.j.p.j.j.p.j.j.j.j.p.j.e.p.f.p.m.y.y , M.< , ! o.8.x.<Xk.i.B.| Z V yX",
" .' a.I.J.&XeX).5XU.5XU.*XqX4X6X6X6X5X6X0X5X6X5X6X6X4X*XeX`.'.>X`..., #XR D 3.>X,XwXqX5Xz.l.*.W x yX",
"K.w.) p.8.5.;.Z y.u.s.s.p.u.u.y.u.y.y.y.a.y.u.u.y.y.u.h.g.d.i.j.t.<X] 4.< ] u. .;.;.8.5.M.Q y.@.h yX",
"f.1Xa.~ X.N.$ $ b.s.s.g.j.j.s.l.z.a.i.s.s.i.s.u.s.y.u.l.l.s.v.u.u.g.b.M.o.f.n.) # @ v.b._ a.a.! h yX",
"m.9XE.8.( s.:.Y ^.a.p.p.y.u.i.u.m.u.s.s.s.v.f.u.s.u.u.u.u.D.b.u.u.u.G.3.m.n.a.E.*.,.W.Q ] I.X.:.m yX",
"&XQ.E..X7.) N. X..]  .y.w.)  .G.( ( a.] 4.o. .5.( q.5.o.5.| s.4.( ( i.f.' o.O. .' N...L N.f...} x yX",
"+X+XY # d.u.< I D S S F G D G i D r Y , Q r F 4 Y F J 2 i G e S F F S G r F ~ , r r ~ ;X* J u.y C yX",
"F.OX:.% q.h.R 3.v.5.F.E.R._ , Y F r ; r G r < Y S < Y > e K F < r 1 T j.v.d.F.6.M.R &Xe.* H B.| V yX",
"W +XS.G.b.0.T n.v.F ,.M.1X~.~ T ^ ' E Y M.v.( v.( E / Y d s./ o.] r z.U.b.5.z ^ m.G =XN.d.f.] [ C yX",
", - z 4.g.t.G n.=.o $.b.w.;X+XL ( a.J T b.R ' ^ ( ../ Y >.s.) E R n.7Xg.u.a.@ F z.Y =Xb.b.u.) d h yX",
"3.!.#.M i.g.D M.a.^ 6.f.g.i.:Xg.T ^ G ~ n.] ] )  .^ q.2 :.s.i.D N.~.j.g.q.W.v.) s.^ ).d.d.u.d.} x yX",
"Q 6.O.~.z.0.1 d.p.m.$XX.p.g.p.A.B.G Q ^ v.^ / ( ) e.] r O.s.L b.*Xu.g.I.y.f.n.I...R ~.f.g.u.a.} c yX",
"O.k.p...y.g.R  Xi.5.N.q.z.p.g.u./.p.T P b...( / ^ ( E G ] T s.*Xu.g.h.y.u.f.r.d.b.y ~.g.u.y.y.{ h yX",
"B.:Xl.n.m.^ r $.u.e.n.M.i.u.g.u.h.:XZ.L a.) / ( ^ a.o.G D N.&Xi.u.h.h.w.u.K.i.3.| S K.h.a.j.u.} c yX",
"Y.6Xw.q.K.p.2 e K r.H.p.u.h.s.h.w.f.Y.f.( R ( / 2.4.T T f.=Xv.u.k.h.K.v.p.o.y. .> e 7Xl.l.u.w.^ x yX",
"j.6Xg.s.d.( r r S q. .+.i.h.y.g.u.g.u._.l.T ' 3.T ' G u.P.3.n.g.h.l.u.v.y.O.) : ! G =Xl.y.g.y.M b yX",
"z.6Xg.l.s.O.e R / S z F.5.g.g.u.p.u.h.h.6XV.P 2.( E p.6Xh.w.h.u.u.i.v.d.v.' F ( ] D &Xj.y.e.E [.B yX",
"f.6Xg.u.u.a.r ~ w.Y 3 r a.E.d.u.k.g.g.l.u.:Xj.( J w.T.u.g.h.u.p.d.u.9.s.:.D 2 v.O.D &Xl.u.L , < N yX",
"b.6Xg.u.u.O.2 E d.T e r L ,.F.g.h.h.u.u.K.u.k.t.g./.J.g.h.u.u.p.f.i.N.T A  .i.R e.D &Xp.g.) 2 p N yX",
"z.6Xh.g.i.r.Y E e.T r E D e :.w.g.u.g.5.d.c.w.5XL.I.5.u.g.y.u.s.v.b.' 2 2 O.+.) ) D =Xs.u.u. .F 7 yX",
"b.6Xh.g.u.( e ( y.F e 4.] r y q.h.x.s.H.y.i.h.8Xg.k.p.y.u.K.i.b...! 2 T E ' O.E q.G =Xg.y.p...u j yX",
"p.8Xt.g.y.q.Y E r.^ r 3.e.G Y Y 4.i.s.t.u.Y.&X3.;X] g.p.i.u.] n.O.G E ' E o.b.( ..L =Xu.u.j.i.y v yX",
"f.6Xh.l.u.q.T E q.) < a.] =.H z ! v.t.h.h.6XF.' ~ s.u.u.u.u.v.T G T E a.G ' n.2.( G *Xs.g.u.) ;.m yX",
"z.6Xu.y.j...e E ) ) i 5.r.U c.{.3 M b.h.6Xl.|.O .  .j.u.y.O.( S Y E ( E Y o.v.L y.G qXu.y.j.u.].V yX",
"f.6Xg.u.j.q.2 ' q.) i 5.] w...%.#.< g.8Xg.a.}.i 6 -.i.a.y.5.S ( ( ' ) T T v.5.) / G #Xj.y.p.i.&.k yX",
"s.6Xg.j.u.] 2 ' ) ^ i N.' ) ( e.S 5.wXp.H.i.G.3.|.XXD.q.u.f.).D ' O.3.E ^ ' 5.E y.L =Xg.i.u.w.&.m yX",
"^.8Xt.] I.w.Y R ) / e 5.) ^ O.D u.eXs.a.W.d.d.d.p.v. .H.q.I.%X!.L T o.E E e.a.P ) F =Xi.g.p.w.R h yX",
"m.L.h.p.b. .r E r.^ W N.e.( R u.6Xg.g.b.3.n.K.y.w.3.9.s.g.w.u._.!.( / ( E ' v./ ) D =Xh.u.g.q.4.m yX",
"2 w.k.H.i.q.r E / / e v.] e F.*Xh.h.g.y.u.i.h.h.h.u.i.g.u.I.g.y._.V.^ E ( ] b.^ ] K =Xl.g.i.w.%.k yX",
"v.g.w.a.n.] e ' e.~ e O.L 9.Y.u.g.h.g.u.g.u.g.l.l.u.H.f.h.u.l.p.p._.b.^ G ] M.^ ) K &Xl.u.l.w.,.M yX",
", ~ 2 =.f.0.e <.~ E H _ h.9Xh.g.g.j.u.p.u.H.3.%.~ 2.3.b.u.h.g.u.l.u.5X2XU ] Q.' q.^ _.m.h.u.w.T x yX",
"2.f.k.M.u.w.r y ^ ] : J.5Xg.g.l.s.d.f.f.f.E X.< 2 Y G.n.u.s.z.h.j.u.p.7Xy.L O.o.^ F ~.K.u.j.y.| m yX",
"m.(.n.u.p.w.r ( v.2 m./.g.u.s.b.3.M.M.M.3.Y 5 ].Y r Y n. .M.p.p.u.u.u.p.(._.T E +.F wXu.y.p.y.2.x yX",
"m.6XO.u.g.w.< E ' n.&Xl.g.g.a.h.i.s.b.+.G F _ 6.] T , ( y.o.3.q.p.u.s.d.p.).3XL ' y `.p.u.u.q.T g yX",
"p.8Xp.K.K.0.r E y.T.J.g.h.u.u.u.y.p...E D T ) / ] ( E F _ 4.6._.g.h.M.n.a.w.3XE.~ D #Xp.y.u...r g yX",
"u.P.d.b.a.g.Y G.R.i.i.J.g.5.i.G.n.4.L r R ' 4.| 4.T y.F Y W 4.i.j.g.u.i.I.g.u.5Xl.Q W.p.g.u...Y g yX",
"f.8XE.v.g.w.r J.K.f.N.a.g.b.a.G.y.Q r Y ' v.E E ] O.T E F r E y.l.u.f.p.u.j.k.g.i._ &Xu.u.s...R x yX",
"E.3Xa.8.m.y.2 5.l.=.=.f.u.i.b.v.] D S P s.0.^ 0./ 0.r.F >.( S ! v.M.q.K.y.f.+.e.p.E W.K.p.p...:.M yX",
"K._.y.G.a.) T N.2.+ : C.u.v...Y S G Y ^ 3.v.E / / ( ] 4 <.5.T 1 r *.s.a.I.o.  Y z.r &Xm.q.f.) R x yX",
"W.).d.G.s.y.1 F.s.S 2.N.q.5.Q F E ] Y Y v.] ( ) w.^ 0.u f 9.:.a z 0 3.N.i.|.B 4.B.r &XW.d.z.i.[ x yX",
"J._...q u.( R G.h.l.N.B.u.,.r e 4.F.Y R G.4.~ }  .~ | e E M.2.2.R F Y M.3.N.+X3.f.T =Xm.F O.O.R x yX",
"(.-X^ X _ m.2 2 ( K T Y T 2 8 e w w 9 9 w p 8 t e e t 1 e Y G R F S S R Q R T 2 T 2 N.3.@ F a.:.h yX",
"n.U.E.S.3./ 3.I.6XL.U.U.J.5X6X6X5X4X5X6X5X5X5X8X5X6X6X5X6X5XI.6X6X6X6XK.6X5X6X4X*X3.r 3.b.l.3.Y g yX",
"n.Y.n.G.%.) M.9.h.s.s.K.k.h.h.h.g.g.l.g.p.h.h.h.h.h.h.k.h.u.p.g.g.h.p.p.u.l.h.j.u.+Xo.' 3.n.b.| h yX",
"N.=X9.~ 4.OX% # M.M.n.a.y.y.y.g.u.g.g.u.g.u.g.g.h.g.g.s.b.i.u.u.u.u.y.K.a.M.M.O.* + 8.v.J f.d.s x yX",
"s.O.Q | 9.5.H Y n.n.d.f.j.E 3.f.d.f.f.b.s.f.s.z.f.f.u.b.i.u.p.g.p.g.u.u.M.n.m.3.~ ~ s.j.v.^ 5.8.k yX",
"p.( ^ u.O.3.m.s.] w./ u.g.Y ,.F.5.8.| n.3.| O.| O.O.5. .e.q.q.) u...q...s.O.X.5.5. .g.) w.j.L oXV yX",
"E { Q.4.4.4.o. X~ .X~ 2.o.S ( o.( 3.( ( ( O.) O.3.e.e.4.( 4.o.2.a. .O.' d.E ' ( ~ 3.+.] o.!.( b v yX",
"< r } 4 ! Y S $.H 1.R ~ > G R L Y ^ ' G L Q L _ _ _ K W ! ' ! ` G G ` L W ~ R F R | e E R W ~ e N yX",
"yXyXyXyXyXyXyXyXyXyXyXyXyXyXyXyXyXyXyXyXyXyXyXyXyXyXyXyXyXyXyXyXyXyXyXyXyXyXyXyXyXyXyXyXyXyXyXyXyXyX"
};
