/* XPM */
static char *_636149411923[] = {
/* columns rows colors chars-per-pixel */
"48 48 2 1 ",
"  c black",
". c gray55",
/* pixels */
"    ....        ....        ....        ....    ",
"    ....        ....        ....        ....    ",
"    ....        ....        ....        ....    ",
"    ....        ....        ....        ....    ",
"    ........................................    ",
"    ........................................    ",
"    ........................................    ",
"    ........................................    ",
"    ....        ....        ....        ....    ",
"    ....        ....        ....        ....    ",
"    ....        ....        ....        ....    ",
"    ....        ....        ....        ....    ",
"    ........................................    ",
"    ........................................    ",
"    ........................................    ",
"    ........................................    ",
"    ....        ....        ....        ....    ",
"    ....        ....        ....        ....    ",
"    ....        ....        ....        ....    ",
"    ....        ....        ....        ....    ",
"    ........................................    ",
"    ........................................    ",
"    ........................................    ",
"    ........................................    ",
"    ....        ....        ....        ....    ",
"    ....        ....        ....        ....    ",
"    ....        ....        ....        ....    ",
"    ....        ....        ....        ....    ",
"    ........................................    ",
"    ........................................    ",
"    ........................................    ",
"    ........................................    ",
"    ....        ....        ....        ....    ",
"    ....        ....        ....        ....    ",
"    ....        ....        ....        ....    ",
"    ....        ....        ....        ....    ",
"    ........................................    ",
"    ........................................    ",
"    ........................................    ",
"    ........................................    ",
"    ....        ....        ....        ....    ",
"    ....        ....        ....        ....    ",
"    ....        ....        ....        ....    ",
"    ....        ....        ....        ....    ",
"    ........................................    ",
"    ........................................    ",
"    ........................................    ",
"    ........................................    "
};
