/* XPM */
static char *big_building_3[] = {
/* columns rows colors chars-per-pixel */
"48 48 2 1 ",
"  c black",
". c gray55",
/* pixels */
"                                                ",
"                                                ",
"                                                ",
"                                                ",
"    ........................................    ",
"    ........................................    ",
"    ........................................    ",
"    ........................................    ",
"    ....                                ....    ",
"    ....                                ....    ",
"    ....                                ....    ",
"    ....                                ....    ",
"    ....    ........................    ....    ",
"    ....    ........................    ....    ",
"    ....    ........................    ....    ",
"    ....    ........................    ....    ",
"    ....    ........................    ....    ",
"    ....    ........................    ....    ",
"    ....    ........................    ....    ",
"    ....    ........................    ....    ",
"    ........................................    ",
"    ........................................    ",
"    ........................................    ",
"    ........................................    ",
"                                                ",
"                                                ",
"                                                ",
"                                                ",
"    ........................................    ",
"    ........................................    ",
"    ........................................    ",
"    ........................................    ",
"    ....        ....        ....        ....    ",
"    ....        ....        ....        ....    ",
"    ....        ....        ....        ....    ",
"    ....        ....        ....        ....    ",
"    ........................................    ",
"    ........................................    ",
"    ........................................    ",
"    ........................................    ",
"    ....        ....        ....        ....    ",
"    ....        ....        ....        ....    ",
"    ....        ....        ....        ....    ",
"    ....        ....        ....        ....    ",
"    ........................................    ",
"    ........................................    ",
"    ........................................    ",
"    ........................................    "
};
