/* XPM */
static char *_39682b03b04447ce2e49b6b0442cb88t44aQmYhXxcf9EWM[] = {
/* columns rows colors chars-per-pixel */
"48 48 2 1 ",
"  c black",
". c gray55",
/* pixels */
"                                                ",
"                                                ",
"                                                ",
"                                                ",
"    ........................................    ",
"    ........................................    ",
"    ........................................    ",
"    ........................................    ",
"    ....                                ....    ",
"    ....                                ....    ",
"    ....                                ....    ",
"    ....                                ....    ",
"    ........................................    ",
"    ........................................    ",
"    ........................................    ",
"    ........................................    ",
"                                                ",
"                                                ",
"                                                ",
"                                                ",
"    ........................................    ",
"    ........................................    ",
"    ........................................    ",
"    ........................................    ",
"    ....    ....    ................    ....    ",
"    ....    ....    ................    ....    ",
"    ....    ....    ................    ....    ",
"    ....    ....    ................    ....    ",
"    ....    ....    ................    ....    ",
"    ....    ....    ................    ....    ",
"    ....    ....    ................    ....    ",
"    ....    ....    ................    ....    ",
"    ........................................    ",
"    ........................................    ",
"    ........................................    ",
"    ........................................    ",
"    ....    ....    ....        ....    ....    ",
"    ....    ....    ....        ....    ....    ",
"    ....    ....    ....        ....    ....    ",
"    ....    ....    ....        ....    ....    ",
"    ....    ....    ....        ....    ....    ",
"    ....    ....    ....        ....    ....    ",
"    ....    ....    ....        ....    ....    ",
"    ....    ....    ....        ....    ....    ",
"    ....................        ............    ",
"    ....................        ............    ",
"    ....................        ............    ",
"    ....................        ............    "
};
