/* XPM */
static char *collectible[] = {
/* columns rows colors chars-per-pixel */
"48 48 2 1 ",
"  c black",
". c #C59F27",
/* pixels */
"                                                ",
"                                                ",
"                                                ",
"                                                ",
"                    ........                    ",
"                    ........                    ",
"                    ........                    ",
"                    ........                    ",
"                    ....                        ",
"                    ....                        ",
"                    ....                        ",
"                    ....                        ",
"                    ........                    ",
"                    ........                    ",
"                    ........                    ",
"                    ........                    ",
"                    ....                        ",
"                    ....                        ",
"                    ....                        ",
"                    ....                        ",
"                    ........                    ",
"                    ........                    ",
"                    ........                    ",
"                    ........                    ",
"                ................                ",
"                ................                ",
"                ................                ",
"                ................                ",
"                ................                ",
"                ................                ",
"                ................                ",
"                ................                ",
"                ....    ........                ",
"                ....    ........                ",
"                ....    ........                ",
"                ....    ........                ",
"                ....    ........                ",
"                ....    ........                ",
"                ....    ........                ",
"                ....    ........                ",
"                    ........                    ",
"                    ........                    ",
"                    ........                    ",
"                    ........                    ",
"                                                ",
"                                                ",
"                                                ",
"                                                "
};
