/* XPM */
static char *_0821d5c38804e6aa4b50bab2c81ffa4RLgreekNnts1s1n3[] = {
/* columns rows colors chars-per-pixel */
"48 48 3 1 ",
"  c black",
". c #7474A5",
"X c #FEFFFF",
/* pixels */
"                                                ",
"                                                ",
"                                                ",
"                                                ",
"    ............................................",
"    ............................................",
"    ............................................",
"    ............................................",
"    ....        XXXXXXXX                    ....",
"    ....        XXXXXXXX                    ....",
"    ....        XXXXXXXX                    ....",
"    ....        XXXXXXXX                    ....",
"    ....    XXXX        XXXXXXXXXXXX        ....",
"    ....    XXXX        XXXXXXXXXXXX        ....",
"    ....    XXXX        XXXXXXXXXXXX        ....",
"    ....    XXXX        XXXXXXXXXXXX        ....",
"    ....        XXXX    XXXX    XXXX        ....",
"    ....        XXXX    XXXX    XXXX        ....",
"    ....        XXXX    XXXX    XXXX        ....",
"    ....        XXXX    XXXX    XXXX        ....",
"    ....        XXXX    XXXXXXXXXXXX        ....",
"    ....        XXXX    XXXXXXXXXXXX        ....",
"    ....        XXXX    XXXXXXXXXXXX        ....",
"    ....        XXXX    XXXXXXXXXXXX        ....",
"    ....    XXXX            XXXXXXXX        ....",
"    ....    XXXX            XXXXXXXX        ....",
"    ....    XXXX            XXXXXXXX        ....",
"    ....    XXXX            XXXXXXXX        ....",
"    ....                                    ....",
"    ....                                    ....",
"    ....                                    ....",
"    ....                                    ....",
"    ....                XXXXXXXXXXXX        ....",
"    ....                XXXXXXXXXXXX        ....",
"    ....                XXXXXXXXXXXX        ....",
"    ....                XXXXXXXXXXXX        ....",
"    ....            XXXX    XXXXXXXX    XXXX....",
"    ....            XXXX    XXXXXXXX    XXXX....",
"    ....            XXXX    XXXXXXXX    XXXX....",
"    ....            XXXX    XXXXXXXX    XXXX....",
"    ....                    XXXXXXXX        ....",
"    ....                    XXXXXXXX        ....",
"    ....                    XXXXXXXX        ....",
"    ....                    XXXXXXXX        ....",
"    ....                XXXX    XXXXXXXX    ....",
"    ....                XXXX    XXXXXXXX    ....",
"    ....                XXXX    XXXXXXXX    ....",
"    ....                XXXX    XXXXXXXX    ...."
};
