/* XPM */
static char *exit[] = {
/* columns rows colors chars-per-pixel */
"48 48 2 1 ",
"  c black",
". c #7474A5",
/* pixels */
"                                                ",
"                                                ",
"                                                ",
"                                                ",
"    ............................................",
"    ............................................",
"    ............................................",
"    ............................................",
"    ....                                    ....",
"    ....                                    ....",
"    ....                                    ....",
"    ....                                    ....",
"    ....    ............................    ....",
"    ....    ............................    ....",
"    ....    ............................    ....",
"    ....    ............................    ....",
"    ....    ............................    ....",
"    ....    ............................    ....",
"    ....    ............................    ....",
"    ....    ............................    ....",
"    ....    ............................    ....",
"    ....    ............................    ....",
"    ....    ............................    ....",
"    ....    ............................    ....",
"    ....    ....................    ....    ....",
"    ....    ....................    ....    ....",
"    ....    ....................    ....    ....",
"    ....    ....................    ....    ....",
"    ....    ....................    ....    ....",
"    ....    ....................    ....    ....",
"    ....    ....................    ....    ....",
"    ....    ....................    ....    ....",
"    ....    ............................    ....",
"    ....    ............................    ....",
"    ....    ............................    ....",
"    ....    ............................    ....",
"    ....    ............................    ....",
"    ....    ............................    ....",
"    ....    ............................    ....",
"    ....    ............................    ....",
"    ....    ............................    ....",
"    ....    ............................    ....",
"    ....    ............................    ....",
"    ....    ............................    ....",
"    ....                                    ....",
"    ....                                    ....",
"    ....                                    ....",
"    ....                                    ...."
};
