/* XPM */
static char *_a1d832f67f64e5ec1bf56918b0f36c3H0oKleiokeosjbMU[] = {
/* columns rows colors chars-per-pixel */
"48 48 2 1 ",
"  c black",
". c #7474A5",
/* pixels */
"                                                ",
"                                                ",
"                                                ",
"                                                ",
"    ............................................",
"    ............................................",
"    ............................................",
"    ............................................",
"    ....                                    ....",
"    ....                                    ....",
"    ....                                    ....",
"    ....                                    ....",
"    ....    ........                        ....",
"    ....    ........                        ....",
"    ....    ........                        ....",
"    ....    ........                        ....",
"    ....    ............                    ....",
"    ....    ............                    ....",
"    ....    ............                    ....",
"    ....    ............                    ....",
"    ....    ................                ....",
"    ....    ................                ....",
"    ....    ................                ....",
"    ....    ................                ....",
"    ....    ........    ....                ....",
"    ....    ........    ....                ....",
"    ....    ........    ....                ....",
"    ....    ........    ....                ....",
"    ....    ........    ....                ....",
"    ....    ........    ....                ....",
"    ....    ........    ....                ....",
"    ....    ........    ....                ....",
"    ....    ................                ....",
"    ....    ................                ....",
"    ....    ................                ....",
"    ....    ................                ....",
"    ....    ............                    ....",
"    ....    ............                    ....",
"    ....    ............                    ....",
"    ....    ............                    ....",
"    ....    ........                        ....",
"    ....    ........                        ....",
"    ....    ........                        ....",
"    ....    ........                        ....",
"    ....                                    ....",
"    ....                                    ....",
"    ....                                    ....",
"    ....                                    ...."
};
