/* XPM */
static char *b7af322238eb4feeceb2870fa62a1eb0iB1fdmjdTP7occtQ[] = {
/* columns rows colors chars-per-pixel */
"48 48 2 1 ",
"  c black",
". c gray55",
/* pixels */
"                                                ",
"                                                ",
"                                                ",
"                                                ",
"    ........    ........................        ",
"    ........    ........................        ",
"    ........    ........................        ",
"    ........    ........................        ",
"                    ....    ....    ....    ....",
"                    ....    ....    ....    ....",
"                    ....    ....    ....    ....",
"                    ....    ....    ....    ....",
"    ............    ....................    ....",
"    ............    ....................    ....",
"    ............    ....................    ....",
"    ............    ....................    ....",
"    ....    ....    ....                        ",
"    ....    ....    ....                        ",
"    ....    ....    ....                        ",
"    ....    ....    ....                        ",
"    ............    ....    ....................",
"    ............    ....    ....................",
"    ............    ....    ....................",
"    ............    ....    ....................",
"    ....    ....    ....    ....    ....    ....",
"    ....    ....    ....    ....    ....    ....",
"    ....    ....    ....    ....    ....    ....",
"    ....    ....    ....    ....    ....    ....",
"    ............    ....    ....................",
"    ............    ....    ....................",
"    ............    ....    ....................",
"    ............    ....    ....................",
"    ....    ....    ....    ....    ....    ....",
"    ....    ....    ....    ....    ....    ....",
"    ....    ....    ....    ....    ....    ....",
"    ....    ....    ....    ....    ....    ....",
"    ............    ....    ....................",
"    ............    ....    ....................",
"    ............    ....    ....................",
"    ............    ....    ....................",
"    ....    ....    ....    ....    ....    ....",
"    ....    ....    ....    ....    ....    ....",
"    ....    ....    ....    ....    ....    ....",
"    ....    ....    ....    ....    ....    ....",
"    ....    ....            ....    ............",
"    ....    ....            ....    ............",
"    ....    ....            ....    ............",
"    ....    ....            ....    ............"
};
