/* XPM */
static char *ad05dba85c7e47b1a4e3b27465547a61TBUQKmOxqV1bvZtd[] = {
/* columns rows colors chars-per-pixel */
"48 48 2 1 ",
"  c black",
". c gray55",
/* pixels */
"                                                ",
"                                                ",
"                                                ",
"                                                ",
"        ............    ............    ........",
"        ............    ............    ........",
"        ............    ............    ........",
"        ............    ............    ........",
"                            ........    ........",
"                            ........    ........",
"                            ........    ........",
"                            ........    ........",
"    ....................    ....                ",
"    ....................    ....                ",
"    ....................    ....                ",
"    ....................    ....                ",
"    ....    ....    ....    ....    ............",
"    ....    ....    ....    ....    ............",
"    ....    ....    ....    ....    ............",
"    ....    ....    ....    ....    ............",
"    ....................    ....    ....    ....",
"    ....................    ....    ....    ....",
"    ....................    ....    ....    ....",
"    ....................    ....    ....    ....",
"    ....    ....    ....    ....    ............",
"    ....    ....    ....    ....    ............",
"    ....    ....    ....    ....    ............",
"    ....    ....    ....    ....    ............",
"    ....................    ....    ....    ....",
"    ....................    ....    ....    ....",
"    ....................    ....    ....    ....",
"    ....................    ....    ....    ....",
"    ....    ....    ....    ....    ............",
"    ....    ....    ....    ....    ............",
"    ....    ....    ....    ....    ............",
"    ....    ....    ....    ....    ............",
"    ....................    ....    ....    ....",
"    ....................    ....    ....    ....",
"    ....................    ....    ....    ....",
"    ....................    ....    ....    ....",
"    ....    ....    ....    ....    ............",
"    ....    ....    ....    ....    ............",
"    ....    ....    ....    ....    ............",
"    ....    ....    ....    ....    ............",
"    ............    ....            ....    ....",
"    ............    ....            ....    ....",
"    ............    ....            ....    ....",
"    ............    ....            ....    ...."
};
