/* XPM */
static char *_9f2bb47a4d94947a2280225fc16d636oqaqVhq0znKqrFVc[] = {
/* columns rows colors chars-per-pixel */
"48 48 3 1 ",
"  c black",
". c #5254FF",
"X c #5454FF",
/* pixels */
"                                                ",
"                                                ",
"                                                ",
"                                                ",
"                                                ",
"                                                ",
"                                                ",
"                                                ",
"                ................                ",
"                ................                ",
"                ................                ",
"                ................                ",
"            ........XXXXXXXX....                ",
"            ........XXXXXXXX....                ",
"            ........XXXXXXXX....                ",
"            ........XXXXXXXX....                ",
"    ....            XXXX    XXXX                ",
"    ....            XXXX    XXXX                ",
"    ....            XXXX    XXXX                ",
"    ....            XXXX    XXXX                ",
"    ........    XXXXXXXXXXXX                    ",
"    ........    XXXXXXXXXXXX                    ",
"    ........    XXXXXXXXXXXX                    ",
"    ........    XXXXXXXXXXXX                    ",
"        ....                XXXXXXXX            ",
"        ....                XXXXXXXX            ",
"        ....                XXXXXXXX            ",
"        ....                XXXXXXXX            ",
"                    XXXX....XXXX    XXXX        ",
"                    XXXX....XXXX    XXXX        ",
"                    XXXX....XXXX    XXXX        ",
"                    XXXX....XXXX    XXXX        ",
"            ....    ........XXXX    ....        ",
"            ....    ........XXXX    ....        ",
"            ....    ........XXXX    ....        ",
"            ....    ........XXXX    ....        ",
"                    XXXX....XXXX                ",
"                    XXXX....XXXX                ",
"                    XXXX....XXXX                ",
"                    XXXX....XXXX                ",
"                    XXXX    ....                ",
"                    XXXX    ....                ",
"                    XXXX    ....                ",
"                    XXXX    ....                ",
"                XXXXXXXX    ....                ",
"                XXXXXXXX    ....                ",
"                XXXXXXXX    ....                ",
"                XXXXXXXX    ....                "
};
