/* XPM */
static char *f041ba2322f24ddb810a0e39edcf489fWgqtpqvAPy1pde7l[] = {
/* columns rows colors chars-per-pixel */
"48 48 3 1 ",
"  c black",
". c #5254FF",
"X c #5454FF",
/* pixels */
"                                                ",
"                                                ",
"                                                ",
"                                                ",
"                                                ",
"                                                ",
"                                                ",
"                                                ",
"                ................                ",
"                ................                ",
"                ................                ",
"                ................                ",
"            ........XXXXXXXX....                ",
"            ........XXXXXXXX....                ",
"            ........XXXXXXXX....                ",
"            ........XXXXXXXX....                ",
"                    XXXX    XXXX                ",
"                    XXXX    XXXX                ",
"                    XXXX    XXXX                ",
"                    XXXX    XXXX                ",
"....            XXXXXXXXXXXX                    ",
"....            XXXXXXXXXXXX                    ",
"....            XXXXXXXXXXXX                    ",
"....            XXXXXXXXXXXX                    ",
"    ........                XXXXXXXX            ",
"    ........                XXXXXXXX            ",
"    ........                XXXXXXXX            ",
"    ........                XXXXXXXX            ",
"                    XXXX....XXXX    XXXX        ",
"                    XXXX....XXXX    XXXX        ",
"                    XXXX....XXXX    XXXX        ",
"                    XXXX....XXXX    XXXX        ",
"            ....    ........XXXX    ....        ",
"            ....    ........XXXX    ....        ",
"            ....    ........XXXX    ....        ",
"            ....    ........XXXX    ....        ",
"                    XXXX....XXXX                ",
"                    XXXX....XXXX                ",
"                    XXXX....XXXX                ",
"                    XXXX....XXXX                ",
"                    XXXX    ....                ",
"                    XXXX    ....                ",
"                    XXXX    ....                ",
"                    XXXX    ....                ",
"                XXXXXXXX    ....                ",
"                XXXXXXXX    ....                ",
"                XXXXXXXX    ....                ",
"                XXXXXXXX    ....                "
};
