/* XPM */
static char *_bd23fc97d2448c2d25f39d6b10645bcwqS9Rf4co6qHtnIn[] = {
/* columns rows colors chars-per-pixel */
"48 48 3 1 ",
"  c black",
". c #5254FF",
"X c #5454FF",
/* pixels */
"                                                ",
"                                                ",
"                                                ",
"                                                ",
"                                                ",
"                                                ",
"                                                ",
"                                                ",
"                ................                ",
"                ................                ",
"                ................                ",
"                ................                ",
"            ........XXXXXXXX....                ",
"            ........XXXXXXXX....                ",
"            ........XXXXXXXX....                ",
"            ........XXXXXXXX....                ",
"                    XXXX    XXXX                ",
"                    XXXX    XXXX                ",
"                    XXXX    XXXX                ",
"                    XXXX    XXXX                ",
"............    XXXXXXXXXXXX                    ",
"............    XXXXXXXXXXXX                    ",
"............    XXXXXXXXXXXX                    ",
"............    XXXXXXXXXXXX                    ",
"        ....                XXXXXXXX            ",
"        ....                XXXXXXXX            ",
"        ....                XXXXXXXX            ",
"        ....                XXXXXXXX            ",
"                    XXXX....XXXX    XXXX        ",
"                    XXXX....XXXX    XXXX        ",
"                    XXXX....XXXX    XXXX        ",
"                    XXXX....XXXX    XXXX        ",
"            ....    ........XXXX    ....        ",
"            ....    ........XXXX    ....        ",
"            ....    ........XXXX    ....        ",
"            ....    ........XXXX    ....        ",
"                    XXXX....XXXX                ",
"                    XXXX....XXXX                ",
"                    XXXX....XXXX                ",
"                    XXXX....XXXX                ",
"                    XXXX    ....                ",
"                    XXXX    ....                ",
"                    XXXX    ....                ",
"                    XXXX    ....                ",
"                XXXXXXXX    ....                ",
"                XXXXXXXX    ....                ",
"                XXXXXXXX    ....                ",
"                XXXXXXXX    ....                "
};
