/* XPM */
static char *f8ce0e908766404af64d519f23a05159g0uNR0YQcrI6ghew[] = {
/* columns rows colors chars-per-pixel */
"48 48 3 1 ",
"  c black",
". c #5254FF",
"X c #5454FF",
/* pixels */
"                                                ",
"                                                ",
"                                                ",
"                                                ",
"                                                ",
"                                                ",
"                                                ",
"                                                ",
"                ................                ",
"                ................                ",
"                ................                ",
"                ................                ",
"            ........XXXXXXXX....                ",
"            ........XXXXXXXX....                ",
"            ........XXXXXXXX....                ",
"            ........XXXXXXXX....                ",
"                    XXXX    XXXX                ",
"                    XXXX    XXXX                ",
"                    XXXX    XXXX                ",
"                    XXXX    XXXX                ",
"........        XXXXXXXXXXXX                    ",
"........        XXXXXXXXXXXX                    ",
"........        XXXXXXXXXXXX                    ",
"........        XXXXXXXXXXXX                    ",
"    ........                XXXXXXXX            ",
"    ........                XXXXXXXX            ",
"    ........                XXXXXXXX            ",
"    ........                XXXXXXXX            ",
"                    XXXX....XXXX    XXXX        ",
"                    XXXX....XXXX    XXXX        ",
"                    XXXX....XXXX    XXXX        ",
"                    XXXX....XXXX    XXXX        ",
"            ....    ........XXXX    ....        ",
"            ....    ........XXXX    ....        ",
"            ....    ........XXXX    ....        ",
"            ....    ........XXXX    ....        ",
"                    XXXX....XXXX                ",
"                    XXXX....XXXX                ",
"                    XXXX....XXXX                ",
"                    XXXX....XXXX                ",
"                    XXXX    ....                ",
"                    XXXX    ....                ",
"                    XXXX    ....                ",
"                    XXXX    ....                ",
"                XXXXXXXX    ....                ",
"                XXXXXXXX    ....                ",
"                XXXXXXXX    ....                ",
"                XXXXXXXX    ....                "
};
