/* XPM */
static char *_6f5f6a34b1b426ef27d3c61a1a89652H1L3ncF5gnlysmAX[] = {
/* columns rows colors chars-per-pixel */
"48 48 3 1 ",
"  c black",
". c #5254FF",
"X c #5454FF",
/* pixels */
"                                                ",
"                                                ",
"                                                ",
"                                                ",
"                                                ",
"                                                ",
"                                                ",
"                                                ",
"                ................                ",
"                ................                ",
"                ................                ",
"                ................                ",
"            ........XXXXXXXX....                ",
"            ........XXXXXXXX....                ",
"            ........XXXXXXXX....                ",
"            ........XXXXXXXX....                ",
"                    XXXX    XXXX                ",
"                    XXXX    XXXX                ",
"                    XXXX    XXXX                ",
"                    XXXX    XXXX                ",
"....            XXXXXXXXXXXX                    ",
"....            XXXXXXXXXXXX                    ",
"....            XXXXXXXXXXXX                    ",
"....            XXXXXXXXXXXX                    ",
"    ....                    XXXXXXXX            ",
"    ....                    XXXXXXXX            ",
"    ....                    XXXXXXXX            ",
"    ....                    XXXXXXXX            ",
"                    XXXX....XXXX    XXXX        ",
"                    XXXX....XXXX    XXXX        ",
"                    XXXX....XXXX    XXXX        ",
"                    XXXX....XXXX    XXXX        ",
"            ....    ........XXXX    ....        ",
"            ....    ........XXXX    ....        ",
"            ....    ........XXXX    ....        ",
"            ....    ........XXXX    ....        ",
"                    XXXX....XXXX                ",
"                    XXXX....XXXX                ",
"                    XXXX....XXXX                ",
"                    XXXX....XXXX                ",
"                    XXXX    ....                ",
"                    XXXX    ....                ",
"                    XXXX    ....                ",
"                    XXXX    ....                ",
"                XXXXXXXX    ....                ",
"                XXXXXXXX    ....                ",
"                XXXXXXXX    ....                ",
"                XXXXXXXX    ....                "
};
