/* XPM */
static char *_3a5f06b32c249b4eba3ac43757e45f2E0QvoioDAUz8KYNx[] = {
/* columns rows colors chars-per-pixel */
"48 48 3 1 ",
"  c black",
". c #5254FF",
"X c #5454FF",
/* pixels */
"                                                ",
"                                                ",
"                                                ",
"                                                ",
"                                                ",
"                                                ",
"                                                ",
"                                                ",
"                ................                ",
"                ................                ",
"                ................                ",
"                ................                ",
"            ........XXXXXXXX....                ",
"            ........XXXXXXXX....                ",
"            ........XXXXXXXX....                ",
"            ........XXXXXXXX....                ",
"    ....            XXXX    XXXX                ",
"    ....            XXXX    XXXX                ",
"    ....            XXXX    XXXX                ",
"    ....            XXXX    XXXX                ",
"        ....    XXXXXXXXXXXX                    ",
"        ....    XXXXXXXXXXXX                    ",
"        ....    XXXXXXXXXXXX                    ",
"        ....    XXXXXXXXXXXX                    ",
"        ....                XXXXXXXX            ",
"        ....                XXXXXXXX            ",
"        ....                XXXXXXXX            ",
"        ....                XXXXXXXX            ",
"                    XXXX....XXXX    XXXX        ",
"                    XXXX....XXXX    XXXX        ",
"                    XXXX....XXXX    XXXX        ",
"                    XXXX....XXXX    XXXX        ",
"            ....    ........XXXX    ....        ",
"            ....    ........XXXX    ....        ",
"            ....    ........XXXX    ....        ",
"            ....    ........XXXX    ....        ",
"                    XXXX....XXXX                ",
"                    XXXX....XXXX                ",
"                    XXXX....XXXX                ",
"                    XXXX....XXXX                ",
"                    XXXX    ....                ",
"                    XXXX    ....                ",
"                    XXXX    ....                ",
"                    XXXX    ....                ",
"                XXXXXXXX    ....                ",
"                XXXXXXXX    ....                ",
"                XXXXXXXX    ....                ",
"                XXXXXXXX    ....                "
};
